<?xml version="1.0" encoding="utf-8"?>
<!-- Generator: Adobe Illustrator 23.0.0, SVG Export Plug-In . SVG Version: 6.00 Build 0)  -->
<svg version="1.1" id="Layer_1" xmlns="http://www.w3.org/2000/svg" xmlns:xlink="http://www.w3.org/1999/xlink" x="0px" y="0px"
	 viewBox="0 0 465 134" style="enable-background:new 0 0 465 134;" xml:space="preserve">
<style type="text/css">
	.st0{fill:#fff;}
</style>
<g>
	<g>
		<path class="st0" d="M163.1,77.2c0,0.5-0.1,1.1-0.1,1.6h-30.8c0.8,7.7,6.7,12.7,14.4,12.7c5.6,0,9.8-2.6,11.8-6.2l3,1.8
			c-2.8,4.6-8.1,7.7-14.8,7.7c-10.5,0-17.9-7.5-17.9-17.7c0-10,7.2-17.7,17.6-17.7C156.6,59.3,163.1,67.8,163.1,77.2z M132.2,75.5
			h27.3c-0.7-8.3-6.6-12.9-13.3-12.9C138.5,62.5,132.9,67.9,132.2,75.5z"/>
		<path class="st0" d="M194.9,85.1c0,5.6-4.9,9.7-12.2,9.7c-6.8,0-11.3-3.2-12.9-7.5l2.9-1.7c1.2,3.7,4.9,6,10,6
			c4.8,0,8.8-2.1,8.8-6.4c0-9.2-20.6-3.9-20.6-16.2c0-5.4,4.6-9.7,11.6-9.7c5.5,0,9.7,2.7,11.6,6.8l-2.9,1.6c-1.4-3.5-5-5.2-8.7-5.2
			c-4.4,0-8.2,2.3-8.2,6.4C174.3,78,194.9,72.7,194.9,85.1z"/>
		<path class="st0" d="M241.1,77c0,10.1-7.9,17.7-17.6,17.7c-6.6,0-11.8-3.4-14.6-8.6v21.5h-3.4V60h3.4v7.9c2.8-5.2,8-8.6,14.6-8.6
			C233.2,59.3,241.1,67,241.1,77z M237.7,77c0-8.1-6.3-14.5-14.4-14.5s-14.4,6.4-14.4,14.5c0,8.1,6.3,14.5,14.4,14.5
			S237.7,85.1,237.7,77z"/>
		<path class="st0" d="M283.7,77.2c0,0.5-0.1,1.1-0.1,1.6h-30.8c0.8,7.7,6.7,12.7,14.4,12.7c5.6,0,9.8-2.6,11.8-6.2l3,1.8
			c-2.8,4.6-8.1,7.7-14.8,7.7c-10.5,0-17.9-7.5-17.9-17.7c0-10,7.2-17.7,17.6-17.7C277.2,59.3,283.7,67.8,283.7,77.2z M252.8,75.5
			h27.3c-0.7-8.3-6.6-12.9-13.3-12.9C259.2,62.5,253.5,67.9,252.8,75.5z"/>
		<path class="st0" d="M308.7,59.5v3.3c-5.8,0-11.4,3.6-11.4,12.3V94H294V60h3.4v6.7C299.7,61.3,304.1,59.5,308.7,59.5z"/>
	</g>
	<path class="st0" d="M38.4,58.7C38.3,58.7,38.3,58.7,38.4,58.7L38.4,58.7C38.3,58.6,38.3,58.6,38.4,58.7L38.4,58.7
		C38.3,58.6,38.3,58.6,38.4,58.7c-0.2-0.1-0.2-0.1-0.3-0.1c0,0,0,0,0,0c0,0,0,0,0,0c0,0,0,0,0,0c-0.1,0-0.2,0-0.3,0h0c0,0,0,0,0,0
		c0,0,0,0,0,0c0,0,0,0,0,0c0,0,0,0,0,0c-0.1,0-0.2,0-0.2,0c0,0,0,0,0,0c0,0,0,0,0,0c0,0,0,0-0.1,0c-0.1,0-0.1,0-0.2,0.1
		c0,0,0,0-0.1,0l0,0c0,0,0,0,0,0L18.6,69.1V52.2c0-1,0.3-2,0.8-2.9c0.5-0.9,1.3-1.6,2.1-2.1l16.1-9.1L76,59.7v-2.6L40,36.8l15-8.5
		c1.8-1,4-1,5.8,0L90,44.8l2.1-1.3L61.9,26.4c-2.4-1.4-5.5-1.4-8,0l-16.8,9.5l-16.7,9.4c-1.2,0.7-2.3,1.7-3,2.9
		c-0.7,1.2-1.1,2.6-1.1,4V71v1.9l21.2-12l1.2,0.7v-0.1l37.2,21v-2.6L38.4,58.7z"/>
	<path class="st0" d="M77.5,83.3L77.5,83.3L77.5,83.3c0.1,0,0.1,0.1,0.2,0.1c0,0,0.1,0,0.1,0c0.2,0,0.4,0,0.6,0c0,0,0.1,0,0.1,0
		c0,0,0.1,0,0.1,0l20.9-11.8V71V52.2c0-1.4-0.4-2.8-1.1-4c0,0,0,0,0,0c-0.7-1.2-1.7-2.2-3-2.9l-3.2-1.8L90,44.8l4.3,2.4
		c0.6,0.3,1.1,0.7,1.5,1.2l-17.6,9.9L76,57.1v2.6l1,0.6v20.2l-1-0.6v2.6L77.5,83.3L77.5,83.3z M79.2,60.2l16.9-9.6l0.7-0.4
		c0.2,0.6,0.3,1.2,0.3,1.9v18.2L88,75.5l-8.8,5V60.2z"/>
	<path class="st0" d="M78.1,81.1l-1.2-0.7v0.1L38.3,58.6v0h0l0,0c-0.1,0-0.1-0.1-0.2-0.1c0,0-0.1,0-0.1,0c-0.2,0-0.4,0-0.6,0
		c0,0-0.1,0-0.1,0c0,0-0.1,0-0.1,0L16.4,70.4V71v18.8c0,1.4,0.4,2.8,1.1,4c0,0,0,0,0,0c0.7,1.2,1.7,2.2,3,2.9l33.5,18.9
		c2.4,1.4,5.5,1.4,8,0l16.8-9.5l16.7-9.4c1.2-0.7,2.3-1.7,3-2.9c0.7-1.2,1.1-2.6,1.1-4V71v-1.9L78.1,81.1z M18.9,91.7
		c-0.2-0.6-0.3-1.2-0.3-1.9V71.6l9.1-5.1l8.8-5v20.2l-16.9,9.6L18.9,91.7z M60.8,113.7c-1.8,1-4,1-5.8,0L21.5,94.8
		c-0.6-0.3-1.1-0.7-1.5-1.2l17.6-9.9l38.1,21.5L60.8,113.7z M97.1,89.8c0,1-0.3,2-0.8,2.9c-0.5,0.9-1.3,1.6-2.1,2.1l-16.1,9.1
		L38.8,81.7V61.5l38.6,21.8c0,0,0,0,0.1,0l0,0c0,0,0,0,0,0l0,0c0,0,0,0,0,0c0.1,0,0.2,0.1,0.2,0.1c0,0,0,0,0,0c0,0,0,0,0,0
		c0,0,0,0,0,0c0.1,0,0.2,0,0.3,0h0c0,0,0,0,0,0c0,0,0,0,0,0c0,0,0,0,0,0c0,0,0,0,0,0c0.1,0,0.2,0,0.2,0c0,0,0,0,0,0c0,0,0,0,0,0
		c0,0,0,0,0.1,0c0.1,0,0.1,0,0.2-0.1c0,0,0,0,0.1,0l0,0c0,0,0,0,0,0l18.5-10.4V89.8z"/>
	<g>
		<path class="st0" d="M340.3,97c-11,0-19.6-8.7-19.6-19.7s8.6-19.7,19.6-19.7c4.9,0,9.3,1.7,12.6,4.8V44.6h7.4v51.6H353v-4.1
			C349.6,95.2,345.2,97,340.3,97z M340.5,64.7c-7,0-12.4,5.5-12.4,12.5s5.5,12.5,12.4,12.5c7,0,12.4-5.5,12.4-12.5
			S347.5,64.7,340.5,64.7z"/>
		<path class="st0" d="M358.4,46.6v47.6H355v-7.9c-2.8,5.2-8,8.6-14.6,8.6c-9.7,0-17.6-7.7-17.6-17.7c0-10.1,7.9-17.7,17.6-17.7
			c6.6,0,11.8,3.4,14.6,8.6V46.6H358.4z M355,77.2c0-8.1-6.3-14.5-14.4-14.5c-8.1,0-14.4,6.4-14.4,14.5c0,8.1,6.3,14.5,14.4,14.5
			C348.6,91.7,355,85.3,355,77.2z"/>
		<path class="st0" d="M386.7,97c-11.1,0-19.9-8.7-19.9-19.7s8.7-19.7,19.9-19.7c11.1,0,19.8,8.7,19.8,19.7S397.8,97,386.7,97z
			 M386.7,64.7c-7,0-12.4,5.5-12.4,12.5s5.5,12.5,12.4,12.5c6.9,0,12.3-5.5,12.3-12.5S393.6,64.7,386.7,64.7z"/>
		<path class="st0" d="M368.8,77.2c0-10.1,8-17.7,17.9-17.7c9.9,0,17.8,7.7,17.8,17.7c0,10.1-8,17.7-17.8,17.7
			C376.8,95,368.8,87.3,368.8,77.2z M401.1,77.2c0-8.1-6.3-14.5-14.3-14.5c-8.1,0-14.4,6.4-14.4,14.5c0,8.1,6.3,14.5,14.4,14.5
			C394.8,91.7,401.1,85.3,401.1,77.2z"/>
		<path class="st0" d="M430.6,97c-11.3,0-19.9-8.5-19.9-19.7s8.5-19.7,19.9-19.7c7.5,0,13.8,3.8,16.6,9.9L448,69l-6.3,3.7l-0.9-2
			c-1.7-3.6-5.6-5.9-10.2-5.9c-7.1,0-12.4,5.4-12.4,12.5s5.3,12.5,12.4,12.5c4.6,0,8.5-2.2,10.5-6l1-1.9l6.3,3.7l-0.9,1.7
			C444.3,93.2,437.9,97,430.6,97z"/>
		<path class="st0" d="M412.7,77.2c0-10.1,7.6-17.7,17.9-17.7c6.7,0,12.4,3.4,14.8,8.7l-2.8,1.6c-2-4.3-6.6-7.1-12-7.1
			c-8.2,0-14.4,6.4-14.4,14.5c0,8.1,6.2,14.5,14.4,14.5c5.5,0,10-2.9,12.2-7.1l2.9,1.7c-2.7,5.2-8.4,8.6-15.1,8.6
			C420.3,95,412.7,87.3,412.7,77.2z"/>
	</g>
</g>
</svg>
