<svg xmlns="http://www.w3.org/2000/svg" xmlns:xlink="http://www.w3.org/1999/xlink" width="60" height="60" viewBox="0 0 60 60">
    <defs>
        <path id="a" d="M0 60h60V0H0z"/>
    </defs>
    <g fill="none" fill-rule="evenodd">
        <path fill="#5F4AA1" d="M60 30c0 16.569-13.431 30-30 30C13.431 60 0 46.569 0 30 0 13.431 13.431 0 30 0c16.569 0 30 13.431 30 30"/>
        <path fill="#B48BCD" d="M59.046 27.247l-25.18.128a.923.923 0 0 1-.927-.919l-.093-18.245a.923.923 0 0 1 .918-.928l25.18-.128a.923.923 0 0 1 .928.918l.092 18.246a.923.923 0 0 1-.918.928"/>
        <path fill="#FFF" d="M33.095 12.227l26.68-.136M33.098 12.804l-.005-1.154 26.679-.135.005 1.153zM38.01 16.102h1.647"/>
        <mask id="b" fill="#fff">
            <use xlink:href="#a"/>
        </mask>
        <path fill="#FFF" d="M38.01 16.68h1.647v-1.155H38.01zM52.304 16.094l4.127-.021M52.307 16.67l-.006-1.153 4.127-.021.006 1.154zM40.95 16.151l10.07-.05M40.954 16.728l-.006-1.154 10.07-.05.005 1.153zM38.01 21.34h1.647M38.01 21.918h1.647v-1.154H38.01zM40.97 21.39l15.48-.079M40.972 21.967l-.006-1.154 15.48-.079.006 1.154zM57.115 9.577a.923.923 0 1 1-1.846 0 .923.923 0 0 1 1.846 0" mask="url(#b)"/>
        <path fill="#FFF" d="M56.192 8.77a.809.809 0 0 0 0 1.615.809.809 0 0 0 0-1.616m0 1.846a1.04 1.04 0 0 1-1.038-1.038 1.04 1.04 0 0 1 1.038-1.039 1.04 1.04 0 0 1 1.039 1.039 1.04 1.04 0 0 1-1.039 1.038" mask="url(#b)"/>
        <path fill="#B48BCD" d="M26.2 50.323l-25.18.129a.923.923 0 0 1-.927-.919L0 31.288a.923.923 0 0 1 .918-.928l25.18-.128a.923.923 0 0 1 .928.918l.093 18.246a.923.923 0 0 1-.919.927" mask="url(#b)"/>
        <path fill="#FFF" d="M.25 35.304l26.679-.136M.253 35.881l-.006-1.154 26.679-.136.006 1.154zM5.165 39.18h1.647M5.165 39.756h1.647v-1.154H5.165zM19.458 39.17l4.127-.02M19.461 39.748l-.006-1.154 4.127-.021.006 1.154zM8.105 39.228l10.07-.05M8.108 39.805l-.006-1.154 10.07-.05.006 1.153zM5.165 44.418h1.647M5.165 44.995h1.647V43.84H5.165zM8.123 44.467l15.48-.08M8.126 45.044L8.12 43.89l15.48-.079.007 1.154zM24.27 32.654a.923.923 0 1 1-1.847 0 .923.923 0 0 1 1.847 0" mask="url(#b)"/>
        <path fill="#FFF" d="M23.346 31.846a.809.809 0 0 0 0 1.616.809.809 0 0 0 0-1.616m0 1.846a1.04 1.04 0 0 1-1.038-1.038 1.04 1.04 0 0 1 1.038-1.039 1.04 1.04 0 0 1 1.039 1.039 1.04 1.04 0 0 1-1.039 1.038" mask="url(#b)"/>
        <path fill="#B48BCD" d="M13.154 25.5a.808.808 0 0 1-.808-.808v-7.816a3.61 3.61 0 0 1 3.607-3.607h9.2a.808.808 0 1 1 0 1.616h-9.2a1.993 1.993 0 0 0-1.991 1.99v7.817a.808.808 0 0 1-.808.808" mask="url(#b)"/>
        <path fill="#B48BCD" d="M29.27 14.192L21.884 9.93v8.527zM43.437 41.534h-9.2a.808.808 0 1 1 0-1.615h9.2a1.993 1.993 0 0 0 1.991-1.991V30.11a.808.808 0 1 1 1.616 0v7.817a3.61 3.61 0 0 1-3.607 3.606" mask="url(#b)"/>
        <path fill="#B48BCD" d="M30.12 40.61l7.385 4.265v-8.528z" mask="url(#b)"/>
    </g>
</svg>
