<svg id="Layer_1" data-name="Layer 1" xmlns="http://www.w3.org/2000/svg" viewBox="0 0 70 70"><defs><style>.cls-4{fill:#fff}.cls-5,.cls-6{stroke-miterlimit:10}.cls-5{fill:none;stroke-width:.75px;stroke-dasharray:1 1;stroke:#fff}.cls-6{fill:#b48bcd;stroke:#5f4aa1;stroke-width:.5px}</style><mask id="mask" x="0" y="0" width="70" height="70" maskUnits="userSpaceOnUse"><g id="kupot3kgdb"><path id="ma38ao39da" d="M0 0h70v70H0z" fill-rule="evenodd" fill="#fff"/></g></mask></defs><g mask="url(#mask)"><path d="M70 35A35 35 0 1135 0a35 35 0 0135 35" fill="#5f4aa1" fill-rule="evenodd"/></g><circle class="cls-4" cx="39.02" cy="40.78" r="1.51"/><rect class="cls-4" x="35.34" y="16.14" width="7.37" height=".7" rx=".08"/><rect class="cls-4" x="28.35" y="21.75" width="21.26" height="13.77" rx=".09" transform="rotate(90 38.985 28.635)"/><path class="cls-5" d="M28.19 30.28C19.7 29.9 17.13 32.53 17 35.14a4.36 4.36 0 003.72 4.51"/><path class="cls-4" d="M28.17 29.46a.84.84 0 01.83.86.85.85 0 11-1.69 0 .84.84 0 01.86-.86zm-7.65 11a.85.85 0 10-.7-1 .85.85 0 00.7 1z"/><rect class="cls-6" x="22.23" y="22.57" width="18.32" height="32.32" rx="1.1"/><rect x="24.79" y="21.16" width="29.09" height="16.48" rx=".77" transform="rotate(90 39.33 29.41)" fill="#b48bcd"/><path class="cls-4" d="M29.16 21.46h20.36a.3.3 0 01.3.3v13.13a.3.3 0 01-.3.3H29.25a.4.4 0 01-.4-.4v-13a.3.3 0 01.31-.33z" transform="rotate(90 39.34 28.33)"/><rect class="cls-4" x="35.62" y="16.14" width="7.41" height=".71" rx=".08"/><circle class="cls-4" cx="39.33" cy="40.92" r="1.52"/><rect class="cls-6" x="15.22" y="29.58" width="32.32" height="18.32" rx=".77" transform="rotate(90 31.385 38.735)"/><path class="cls-5" d="M41.05 40.26c8.5.38 11.06-2.25 11.21-4.86a4.36 4.36 0 00-3.71-4.51"/><path class="cls-4" d="M41.07 41.09a.85.85 0 11.87-.83.85.85 0 01-.87.83zm7.65-11.01a.85.85 0 10-.27 1.67.85.85 0 00.27-1.67z"/><path d="M39.02 26.14v22.74a.3.3 0 01-.3.3H24.07a.3.3 0 01-.3-.3v-22.6a.4.4 0 01.4-.4h14.55a.3.3 0 01.3.26z" stroke-width=".1" stroke-miterlimit="10" stroke="#fff" fill="#5f4aa1"/><path class="cls-4" d="M29.24 35.57h-.14l-2.17 1.23v-2a.67.67 0 01.1-.34.67.67 0 01.25-.25l1.88-1.08 4.47 2.56v-.3L29.43 33l1.75-1a.69.69 0 01.68 0l3.41 2 .25-.16-3.53-2a1 1 0 00-.94 0l-1.95 1.02-2 1.11a1 1 0 00-.48.82v2.46l2.48-1.42.14.08 4.34 2.49v-.3z"/><path class="cls-4" d="M33.81 38.49h.12l2.44-1.4v-2.3a1 1 0 00-.13-.47.91.91 0 00-.35-.35l-.37-.21-.25.16.49.28a.86.86 0 01.18.14l-2.06 1.18-.25-.14v.3l.12.07v2.4l-.12-.06v.3l.18.1zm.2-2.74l2-1.13h.08a.85.85 0 010 .22V37l-1.09.56-1 .59z"/><path class="cls-4" d="M33.88 38.22l-.14-.08-4.52-2.59h-.11L26.67 37v2.31a.88.88 0 00.13.47.88.88 0 00.34.35l3.91 2.24a1 1 0 00.93 0l2-1.12 2-1.12a1 1 0 00.35-.35 1 1 0 00.12-.47V36.8zM27 39.48a.57.57 0 010-.22V37.1l1-.61 1-.59v2.4l-2 1.14zm4.88 2.61a.67.67 0 01-.67 0l-3.91-2.24-.17-.14 2.06-1.18 4.45 2.55zm4.25-2.83a.67.67 0 01-.09.34.75.75 0 01-.25.25l-1.89 1.08-4.61-2.63v-2.4l4.51 2.59h.14l2.16-1.24z"/><rect class="cls-4" x="27.26" y="24" width="8.24" height=".78" rx=".08"/><circle class="cls-4" cx="31.38" cy="51.53" r="1.69"/></svg>