<svg xmlns="http://www.w3.org/2000/svg" xmlns:xlink="http://www.w3.org/1999/xlink" width="60" height="60" viewBox="0 0 60 60">
    <defs>
        <path id="a" d="M0 0h60v60H0z"/>
        <path id="c" d="M0 60h60V0H0z"/>
    </defs>
    <g fill="none" fill-rule="evenodd">
        <mask id="b" fill="#fff">
            <use xlink:href="#a"/>
        </mask>
        <path fill="#5F4AA1" d="M60 30c0 16.568-13.431 30-30 30C13.431 60 0 46.568 0 30 0 13.43 13.431 0 30 0 46.569 0 60 13.43 60 30" mask="url(#b)"/>
        <path fill="#B48BCD" d="M16.067 17.444l31.627-.161a.923.923 0 0 1 .928.918l.13 25.479a.923.923 0 0 1-.919.928l-31.766.161V17.444z"/>
        <path fill="#FCFCFC" d="M18.375 44.77l-5.451.015a.923.923 0 0 1-.928-.918l-.13-25.479a.923.923 0 0 1 .919-.928l5.59-.016v27.325z"/>
        <path fill="#FFF" d="M12.208 22.337l36.284-.185M12.21 22.65l-.004-.627 36.284-.185.003.628zM36.75 28.77a4.615 4.615 0 1 0 0 9.23 4.612 4.612 0 0 0 4.604-4.385H36.75V28.77z"/>
        <path fill="#FFF" d="M37.673 27.846v4.846h4.604c.004-.077.011-.152.011-.23a4.615 4.615 0 0 0-4.615-4.616"/>
        <path fill="#B48BCD" d="M14.97 23.209a.788.788 0 1 1 .002-1.576.788.788 0 0 1-.002 1.576m2.341-1.054c-.007-.066-.085-.116-.152-.116a.524.524 0 0 1-.488-.324.525.525 0 0 1 .132-.583.131.131 0 0 0 .014-.178 2.33 2.33 0 0 0-.374-.377.131.131 0 0 0-.179.014.543.543 0 0 1-.588.132.524.524 0 0 1-.319-.512.13.13 0 0 0-.116-.138 2.36 2.36 0 0 0-.53 0 .131.131 0 0 0-.117.134.525.525 0 0 1-.323.503.545.545 0 0 1-.584-.133.132.132 0 0 0-.178-.015c-.142.111-.27.238-.382.378a.131.131 0 0 0 .014.18.523.523 0 0 1 .132.588.546.546 0 0 1-.513.319.128.128 0 0 0-.136.116c-.021.177-.021.357-.002.536.008.067.088.116.155.116a.517.517 0 0 1 .486.323.524.524 0 0 1-.132.584.131.131 0 0 0-.015.177c.11.14.236.267.374.378a.131.131 0 0 0 .18-.014.543.543 0 0 1 .587-.133.523.523 0 0 1 .32.512c-.005.07.046.13.115.138a2.377 2.377 0 0 0 .53.002.131.131 0 0 0 .118-.135.524.524 0 0 1 .323-.504.544.544 0 0 1 .584.133c.046.051.123.057.178.015.141-.11.27-.237.381-.377a.131.131 0 0 0-.014-.18.522.522 0 0 1 .35-.908l.03.001a.131.131 0 0 0 .138-.115 2.37 2.37 0 0 0 .001-.537"/>
        <path fill="#B48BCD" d="M14.97 21.693a.73.73 0 0 0 0 1.458.73.73 0 0 0 0-1.458m0 1.574a.846.846 0 0 1 0-1.69.846.846 0 0 1 0 1.69m-.902.749c.073 0 .145.013.212.04a.581.581 0 0 1 .354.57.074.074 0 0 0 .065.077c.17.02.346.02.517.001a.073.073 0 0 0 .066-.075.582.582 0 0 1 .359-.559.599.599 0 0 1 .649.147.074.074 0 0 0 .1.009 2.28 2.28 0 0 0 .371-.368.073.073 0 0 0-.007-.1.58.58 0 0 1 .389-1.01l.03.001a.074.074 0 0 0 .08-.064c.02-.173.02-.349 0-.524-.003-.031-.051-.064-.094-.064a.58.58 0 0 1-.542-.36.583.583 0 0 1 .147-.648.074.074 0 0 0 .008-.099 2.283 2.283 0 0 0-.365-.368.073.073 0 0 0-.1.008.605.605 0 0 1-.654.147.582.582 0 0 1-.354-.57.073.073 0 0 0-.064-.076 2.313 2.313 0 0 0-.518-.001.073.073 0 0 0-.065.075.584.584 0 0 1-.36.56.606.606 0 0 1-.648-.149.074.074 0 0 0-.1-.008 2.28 2.28 0 0 0-.372.368.073.073 0 0 0 .008.1.58.58 0 0 1 .146.654.603.603 0 0 1-.566.354c-.044-.001-.074.025-.08.065-.02.173-.02.349 0 .524.003.03.053.064.097.064a.575.575 0 0 1 .54.36.583.583 0 0 1-.147.647.073.073 0 0 0-.008.1c.106.135.229.26.364.368.03.024.074.02.1-.008a.603.603 0 0 1 .442-.188m.896.818c-.093 0-.187-.006-.279-.016a.189.189 0 0 1-.166-.199.465.465 0 0 0-.284-.455.483.483 0 0 0-.523.117.19.19 0 0 1-.259.021 2.407 2.407 0 0 1-.382-.387.19.19 0 0 1 .02-.256.467.467 0 0 0 .118-.519.456.456 0 0 0-.43-.287c-.095 0-.203-.068-.214-.168-.02-.183-.02-.368.001-.55a.187.187 0 0 1 .189-.166h.007a.488.488 0 0 0 .458-.284.465.465 0 0 0-.118-.523.19.19 0 0 1-.02-.259c.114-.142.246-.272.391-.386a.19.19 0 0 1 .256.021.486.486 0 0 0 .52.119.467.467 0 0 0 .287-.448.19.19 0 0 1 .168-.194c.18-.02.363-.02.544 0a.19.19 0 0 1 .167.2.467.467 0 0 0 .283.455.484.484 0 0 0 .523-.117.189.189 0 0 1 .259-.021c.14.113.27.243.383.386a.19.19 0 0 1-.021.257.467.467 0 0 0-.117.519.466.466 0 0 0 .434.287c.092 0 .198.067.21.168.02.183.02.368-.002.55a.19.19 0 0 1-.2.166h-.026a.465.465 0 0 0-.31.808.19.19 0 0 1 .02.257 2.41 2.41 0 0 1-.39.387.189.189 0 0 1-.257-.021.486.486 0 0 0-.52-.119.465.465 0 0 0-.286.447.19.19 0 0 1-.169.195c-.087.01-.177.015-.265.015"/>
        <mask id="d" fill="#fff">
            <use xlink:href="#c"/>
        </mask>
        <path fill="#FFF" d="M20.135 29.692h8.538v-4.615h-8.538zM20.135 35.692h8.538v-4.615h-8.538zM20.135 41.923h8.538v-4.615h-8.538z" mask="url(#d)"/>
    </g>
</svg>
