<svg xmlns="http://www.w3.org/2000/svg" xmlns:xlink="http://www.w3.org/1999/xlink" width="60" height="60" viewBox="0 0 60 60">
    <defs>
        <path id="a" d="M0 0h60v60H0z"/>
    </defs>
    <g fill="none" fill-rule="evenodd">
        <g>
            <mask id="b" fill="#fff">
                <use xlink:href="#a"/>
            </mask>
            <path fill="#5F4AA1" d="M60 30c0 16.568-13.431 30-30 30C13.431 60 0 46.568 0 30 0 13.43 13.431 0 30 0 46.569 0 60 13.43 60 30" mask="url(#b)"/>
        </g>
        <path fill="#F4F6FB" d="M48.2 29.784h-1.709v-5.119a1.968 1.968 0 0 0-1.968-1.968h-5.038v-1.63a2.222 2.222 0 1 0-4.445 0v1.63h-5.038a1.968 1.968 0 0 0-1.968 1.968v5.119h1.71a2.222 2.222 0 1 1 0 4.444h-1.71v4.958c0 1.087.88 1.968 1.968 1.968h5.038v-1.63a2.222 2.222 0 0 1 4.445 0v1.63h5.038c1.087 0 1.968-.88 1.968-1.968v-4.958h1.71a2.222 2.222 0 0 0 0-4.444"/>
        <path fill="#B18BBF" d="M29.744 29.784h-1.71v-5.119a1.968 1.968 0 0 0-1.968-1.968h-5.038v-1.63a2.222 2.222 0 0 0-4.445 0v1.63h-5.038a1.968 1.968 0 0 0-1.968 1.968v5.119h1.71a2.222 2.222 0 1 1 0 4.444h-1.71v4.958c0 1.087.881 1.968 1.968 1.968h5.038v-1.63a2.222 2.222 0 0 1 4.445 0v1.63h5.038c1.087 0 1.968-.88 1.968-1.968v-4.958h1.71a2.222 2.222 0 0 0 0-4.444"/>
    </g>
</svg>
