<svg xmlns="http://www.w3.org/2000/svg" xmlns:xlink="http://www.w3.org/1999/xlink" width="60" height="60" viewBox="0 0 60 60">
    <defs>
        <path id="a" d="M0 60h60V0H0z"/>
    </defs>
    <g fill="none" fill-rule="evenodd">
        <path fill="#5F4AA1" d="M60 30c0 16.569-13.431 30-30 30C13.431 60 0 46.569 0 30 0 13.431 13.431 0 30 0c16.569 0 30 13.431 30 30"/>
        <path fill="#B48BCD" d="M38.893 35.554l-25.18.129a.923.923 0 0 1-.928-.919l-.093-18.245a.923.923 0 0 1 .919-.928l25.18-.128a.923.923 0 0 1 .927.918l.093 18.246a.923.923 0 0 1-.918.927"/>
        <path fill="#FFF" d="M12.942 20.535l26.679-.136M12.945 21.112l-.006-1.154 26.68-.136.005 1.154zM17.857 24.41h1.647"/>
        <mask id="b" fill="#fff">
            <use xlink:href="#a"/>
        </mask>
        <path fill="#FFF" d="M17.857 24.987h1.647v-1.154h-1.647zM32.15 24.401l4.127-.02M32.153 24.978l-.005-1.154 4.127-.02.005 1.153zM20.797 24.46l10.07-.052M20.8 25.036l-.006-1.154 10.07-.051.006 1.154zM17.857 29.648h1.647M17.857 30.225h1.647v-1.153h-1.647zM20.816 29.698l15.48-.08M20.818 30.274l-.005-1.153 15.48-.08.006 1.155zM36.962 17.885a.923.923 0 1 1-1.846 0 .923.923 0 0 1 1.846 0" mask="url(#b)"/>
        <path fill="#FFF" d="M36.039 17.077a.809.809 0 0 0 0 1.615.809.809 0 0 0 0-1.615m0 1.846A1.04 1.04 0 0 1 35 17.885a1.04 1.04 0 0 1 1.039-1.039 1.04 1.04 0 0 1 1.038 1.039 1.04 1.04 0 0 1-1.038 1.038" mask="url(#b)"/>
        <path fill="#B48BCD" d="M39.616 42.809a3.144 3.144 0 0 1-3.14-3.141 3.144 3.144 0 0 1 3.14-3.141 3.144 3.144 0 0 1 3.141 3.14 3.144 3.144 0 0 1-3.14 3.142m9.342-4.207c-.03-.265-.338-.463-.605-.463a2.092 2.092 0 0 1-1.95-1.29 2.097 2.097 0 0 1 .527-2.33.523.523 0 0 0 .057-.71 9.307 9.307 0 0 0-1.492-1.506.524.524 0 0 0-.716.058c-.56.621-1.57.852-2.348.527a2.092 2.092 0 0 1-1.272-2.045.522.522 0 0 0-.462-.55 9.4 9.4 0 0 0-2.12-.005.525.525 0 0 0-.466.539c.031.873-.486 1.68-1.289 2.009-.77.314-1.77.085-2.331-.53a.525.525 0 0 0-.71-.06 9.332 9.332 0 0 0-1.524 1.506.524.524 0 0 0 .056.715c.656.594.867 1.538.527 2.35-.326.774-1.13 1.273-2.05 1.273a.512.512 0 0 0-.543.462 9.44 9.44 0 0 0-.005 2.142c.03.266.348.463.618.463.82-.021 1.607.487 1.938 1.29.329.803.117 1.739-.527 2.329a.524.524 0 0 0-.057.71c.437.557.94 1.064 1.49 1.507.215.174.53.149.716-.057.564-.623 1.572-.854 2.348-.528a2.088 2.088 0 0 1 1.274 2.044.523.523 0 0 0 .462.55 9.354 9.354 0 0 0 2.119.006.524.524 0 0 0 .466-.54 2.093 2.093 0 0 1 1.288-2.008c.776-.317 1.772-.085 2.333.53a.526.526 0 0 0 .71.06 9.377 9.377 0 0 0 1.524-1.506.523.523 0 0 0-.056-.716 2.087 2.087 0 0 1-.528-2.349 2.108 2.108 0 0 1 1.927-1.277l.116.003a.524.524 0 0 0 .551-.461 9.428 9.428 0 0 0 .004-2.142" mask="url(#b)"/>
        <path fill="#5F4AA1" d="M39.616 36.757a2.913 2.913 0 0 0-2.91 2.91 2.914 2.914 0 0 0 2.91 2.911 2.914 2.914 0 0 0 2.91-2.91 2.913 2.913 0 0 0-2.91-2.91m0 6.282a3.376 3.376 0 0 1-3.371-3.372 3.376 3.376 0 0 1 3.371-3.372 3.376 3.376 0 0 1 3.372 3.372 3.376 3.376 0 0 1-3.372 3.372m-3.602 2.991c.292 0 .58.053.844.164a2.32 2.32 0 0 1 1.416 2.27c-.01.155.104.29.258.308.682.079 1.383.082 2.066.005a.292.292 0 0 0 .262-.302 2.324 2.324 0 0 1 1.431-2.23c.868-.354 1.957-.106 2.59.59a.294.294 0 0 0 .4.032 9.145 9.145 0 0 0 1.484-1.468.293.293 0 0 0-.031-.4 2.317 2.317 0 0 1-.586-2.61 2.341 2.341 0 0 1 2.14-1.418l.122.003a.296.296 0 0 0 .316-.258c.08-.689.082-1.392.004-2.09-.014-.125-.208-.258-.376-.258a2.32 2.32 0 0 1-2.163-1.434 2.329 2.329 0 0 1 .584-2.586.293.293 0 0 0 .032-.397 9.1 9.1 0 0 0-1.455-1.47.293.293 0 0 0-.4.033c-.626.693-1.748.946-2.61.586a2.323 2.323 0 0 1-1.413-2.27.293.293 0 0 0-.258-.308 9.248 9.248 0 0 0-2.067-.006.295.295 0 0 0-.26.302 2.328 2.328 0 0 1-1.433 2.23c-.854.349-1.967.096-2.59-.588a.295.295 0 0 0-.398-.033 9.089 9.089 0 0 0-1.485 1.468.294.294 0 0 0 .031.4c.728.66.963 1.708.585 2.61-.361.86-1.25 1.415-2.262 1.415-.174-.006-.296.096-.315.259a9.2 9.2 0 0 0-.004 2.088c.014.126.213.258.388.258.924-.023 1.79.553 2.151 1.434a2.326 2.326 0 0 1-.584 2.586.294.294 0 0 0-.032.397 9.121 9.121 0 0 0 1.453 1.47c.121.097.297.083.402-.032.434-.48 1.106-.75 1.763-.75m3.576 3.265c-.37 0-.745-.022-1.112-.065a.754.754 0 0 1-.665-.793 1.857 1.857 0 0 0-1.133-1.817c-.687-.289-1.585-.087-2.087.47a.755.755 0 0 1-1.033.082 9.597 9.597 0 0 1-1.527-1.545.757.757 0 0 1 .083-1.022 1.863 1.863 0 0 0 .47-2.071c-.29-.705-.977-1.171-1.719-1.147-.38 0-.808-.269-.853-.669a9.66 9.66 0 0 1 .004-2.194.745.745 0 0 1 .781-.666c.82 0 1.54-.444 1.829-1.131a1.856 1.856 0 0 0-.469-2.09.756.756 0 0 1-.081-1.031 9.58 9.58 0 0 1 1.561-1.543.759.759 0 0 1 1.023.086c.5.548 1.39.75 2.074.472a1.864 1.864 0 0 0 1.146-1.787.759.759 0 0 1 .672-.777 9.68 9.68 0 0 1 2.17.006c.397.047.69.395.666.793a1.86 1.86 0 0 0 1.131 1.818c.689.289 1.587.086 2.088-.47a.754.754 0 0 1 1.031-.082c.563.45 1.077.97 1.53 1.543a.757.757 0 0 1-.084 1.024 1.865 1.865 0 0 0-.468 2.07 1.861 1.861 0 0 0 1.736 1.148c.367 0 .79.268.834.669.082.732.081 1.47-.004 2.194a.755.755 0 0 1-.799.664l-.103-.002c-.735 0-1.424.456-1.708 1.135-.303.721-.114 1.56.47 2.09.295.267.33.72.08 1.03a9.596 9.596 0 0 1-1.56 1.544.754.754 0 0 1-1.023-.085c-.5-.55-1.392-.753-2.075-.473a1.86 1.86 0 0 0-1.145 1.786.76.76 0 0 1-.672.777 9.66 9.66 0 0 1-1.059.059" mask="url(#b)"/>
        <path fill="#FFF" d="M41.308 39.692a1.615 1.615 0 1 1-3.231 0 1.615 1.615 0 0 1 3.23 0" mask="url(#b)"/>
    </g>
</svg>
