<svg xmlns="http://www.w3.org/2000/svg" width="60" height="60" viewBox="0 0 60 60">
    <g fill="none" fill-rule="evenodd">
        <path fill="#5F4AA1" d="M60 30c0 16.569-13.431 30-30 30C13.431 60 0 46.569 0 30 0 13.431 13.431 0 30 0c16.569 0 30 13.431 30 30"/>
        <path fill="#B48BCD" d="M45.812 42.457l-31.687.16a.923.923 0 0 1-.928-.918l-.117-23.083a.923.923 0 0 1 .918-.927l31.687-.162a.923.923 0 0 1 .928.919l.117 23.083a.923.923 0 0 1-.918.928"/>
        <path fill="#FFF" d="M25.87 36.211a.576.576 0 0 1-.355-.122l-8.02-6.281 7.529-6.777a.577.577 0 0 1 .771.858l-6.507 5.858 6.938 5.433a.577.577 0 0 1-.356 1.031M34.688 36.211a.576.576 0 0 1-.386-1.006l6.507-5.858-6.938-5.433a.577.577 0 0 1 .711-.909l8.02 6.281-7.529 6.777a.574.574 0 0 1-.385.148M29.97 36.248a.577.577 0 0 1-.578-.577V23.423a.577.577 0 1 1 1.154 0v12.248a.577.577 0 0 1-.577.577"/>
    </g>
</svg>
