<svg id="Layer_1" data-name="Layer 1" xmlns="http://www.w3.org/2000/svg" viewBox="0 0 70 70"><defs><style>.cls-8{fill:#fff}.cls-4{fill:#b48bcd}.cls-10,.cls-5{fill:none}.cls-5{stroke:#b48bcd}.cls-10,.cls-5{stroke-miterlimit:10}.cls-10{stroke:#fcfcfc;stroke-width:.25px}</style><mask id="mask" x="0" y="0" width="70" height="70" maskUnits="userSpaceOnUse"><g id="kupot3kgdb"><path id="ma38ao39da" d="M0 0h70v70H0z" fill-rule="evenodd" fill="#fff"/></g></mask></defs><g mask="url(#mask)"><path d="M70 35A35 35 0 1135 0a35 35 0 0135 35" fill="#5f4aa1" fill-rule="evenodd"/></g><rect class="cls-4" x="16.77" y="22.69" width="28.52" height="19.07" rx="1.1"/><path class="cls-5" d="M16.37 21.16H45.8a1.1 1.1 0 011.1 1.1v21H15.27v-21a1.1 1.1 0 011.1-1.1z"/><path d="M14.35 44.69h33.86a.22.22 0 01.22.22v.67a1.1 1.1 0 01-1.1 1.1H15a1.1 1.1 0 01-1.1-1.1v-.44a.45.45 0 01.45-.45z" stroke-miterlimit="10" stroke="#b48bcd" fill="#b48bcd"/><path d="M28.38 44.71h5.3v.14a.16.16 0 01-.16.16h-5a.16.16 0 01-.16-.16v-.15l.02.01z" stroke="#fff" stroke-miterlimit="10" fill="#fff"/><rect class="cls-4" x="25.62" y="22.06" width="19.06" height="20.28" rx=".48" transform="rotate(90 35.155 32.205)"/><path class="cls-8" d="M38.8 23.56h2.69v2.69H38.8z"/><path stroke-width=".75" stroke="#fcfcfc" stroke-miterlimit="10" fill="none" d="M45.29 27.75H16.77"/><path class="cls-10" d="M37.87 35H26.3"/><path class="cls-8" d="M27.1 29.6h9.96v3.87H27.1z"/><path class="cls-10" d="M37.87 37.01H26.3m11.57 2.19H26.3"/><path d="M11 28.44h19.12v7.12a.48.48 0 01-.48.48H11.5a.48.48 0 01-.48-.48v-7.12H11z" transform="rotate(90 20.57 32.23)" fill="#fcfcfc"/><path class="cls-5" d="M16 21.16h30.14a.77.77 0 01.77.77v21.34H15.25V21.93a.77.77 0 01.75-.77z"/><circle cx="46.9" cy="43.27" r="4.07" fill="#5f4aa1"/><circle class="cls-8" cx="46.91" cy="43.25" r="1.46"/><path d="M46.91 46.44a3.17 3.17 0 113-3 3.18 3.18 0 01-3 3m9.42-4.24a.64.64 0 00-.62-.47 2.1 2.1 0 01-1.43-3.65.53.53 0 00.06-.72 9.32 9.32 0 00-1.5-1.51.53.53 0 00-.73.06 2.21 2.21 0 01-2.36.53 2.11 2.11 0 01-1.28-2.06.53.53 0 00-.47-.56 9.57 9.57 0 00-2.14 0 .53.53 0 00-.47.54 2.09 2.09 0 01-1.3 2 2.17 2.17 0 01-2.34-.53.54.54 0 00-.72-.06 9.63 9.63 0 00-1.54 1.52.53.53 0 00.06.72 2.11 2.11 0 01.53 2.37 2.2 2.2 0 01-2.08 1.3.51.51 0 00-.55.47 9.75 9.75 0 000 2.16.61.61 0 00.62.46 2.07 2.07 0 011.93 1.3 2.11 2.11 0 01-.53 2.35.52.52 0 00-.06.71A9.8 9.8 0 0041 50.65a.53.53 0 00.73-.06 2.21 2.21 0 012.27-.53 2.12 2.12 0 011.29 2.06.53.53 0 00.46.56 9.57 9.57 0 002.14 0 .52.52 0 00.46-.54 2.1 2.1 0 011.3-2 2.18 2.18 0 012.35.53.53.53 0 00.72.06 9.63 9.63 0 001.54-1.52.53.53 0 00-.06-.72 2.11 2.11 0 01-.15-3 2.14 2.14 0 011.56-.68h.12a.52.52 0 00.55-.47 9.66 9.66 0 000-2.15" stroke="#5f4aa1" stroke-width=".75" stroke-miterlimit="10" fill="#b48bcd" fill-rule="evenodd"/></svg>