<svg id="Layer_1" data-name="Layer 1" xmlns="http://www.w3.org/2000/svg" viewBox="0 0 70.8 70"><defs><style>.cls-6{fill:none;stroke:#b48bcd;stroke-miterlimit:10;stroke-width:.5px}</style><mask id="mask" x="0" y="0" width="70" height="70" maskUnits="userSpaceOnUse"><g id="kupot3kgdb"><path id="ma38ao39da" d="M0 0h70v70H0z" fill-rule="evenodd" fill="#fff"/></g></mask></defs><g mask="url(#mask)"><path d="M70 35A35 35 0 1135 0a35 35 0 0135 35" fill="#5f4aa1" fill-rule="evenodd"/></g><rect x="23.74" y="20.21" width="22.31" height="31.2" rx="1.1" fill="#fcfcfc"/><path stroke-miterlimit="10" fill="none" stroke="#b48bcd" d="M26.45 23.75h16.96v.74H26.45z"/><path class="cls-6" d="M35.35 28.28h8.07m-8.07 1.51h8.07m-8.07 1.51h8.07m-8.07 1.52h8.07m-8.07 1.51h8.07"/><path stroke-width="2" stroke-miterlimit="10" fill="none" stroke="#b48bcd" d="M26.13 39.14h17.29"/><path stroke-width=".25" stroke-miterlimit="10" fill="none" stroke="#b48bcd" d="M26.38 27.37h7.56v7.56h-7.56z"/><path d="M32.78 44.22l1.84 1.83-1.84 1.84m-3.36 0l-1.83-1.84 1.83-1.83" fill="none" stroke="#b48bcd" stroke-miterlimit="10" stroke-width=".5" fill-rule="evenodd"/><path class="cls-6" d="M31.55 44.22l-.86 3.67"/><path d="M43.43 50.63a2.28 2.28 0 112.17-2.17 2.29 2.29 0 01-2.17 2.17m6.78-3.06a.44.44 0 00-.44-.33 1.51 1.51 0 01-1-2.63.37.37 0 000-.52A7 7 0 0047.7 43a.37.37 0 00-.52 0 1.58 1.58 0 01-1.71.38 1.51 1.51 0 01-.92-1.48.38.38 0 00-.34-.4 7.21 7.21 0 00-1.54 0 .39.39 0 00-.34.4 1.52 1.52 0 01-.93 1.45 1.58 1.58 0 01-1.7-.35.36.36 0 00-.51 0 6.74 6.74 0 00-1.11 1.09.37.37 0 000 .52 1.51 1.51 0 01.38 1.71 1.57 1.57 0 01-1.46.88.37.37 0 00-.39.34 6.78 6.78 0 000 1.56.44.44 0 00.44.33 1.51 1.51 0 011 2.63.37.37 0 000 .52 6.55 6.55 0 001.08 1.09.37.37 0 00.52 0 1.58 1.58 0 011.71-.38 1.5 1.5 0 01.92 1.48.38.38 0 00.34.4 6.61 6.61 0 001.54 0 .38.38 0 00.34-.39 1.52 1.52 0 01.93-1.46 1.59 1.59 0 011.7.39.37.37 0 00.51 0 6.74 6.74 0 001.11-1.09.37.37 0 000-.52 1.51 1.51 0 01-.1-2.14 1.49 1.49 0 011.12-.5h.08a.38.38 0 00.4-.34 6.7 6.7 0 000-1.55" fill="#b48bcd" stroke="#5f4aa1" stroke-width=".5" stroke-miterlimit="10" fill-rule="evenodd"/></svg>